<mxfile host="app.diagrams.net" modified="2023-09-05T15:41:38.488Z" agent="Mozilla/5.0 (Windows NT 10.0; Win64; x64) AppleWebKit/537.36 (KHTML, like Gecko) Chrome/116.0.0.0 Safari/537.36" etag="YLHHT_KKyi-ripW1ThF8" version="21.7.1" type="google">
  <diagram id="akEowiJKr_ScigKzrRVM" name="Page-1">
    <mxGraphModel grid="1" page="1" gridSize="10" guides="1" tooltips="1" connect="1" arrows="1" fold="1" pageScale="1" pageWidth="689" pageHeight="517" math="0" shadow="0">
      <root>
        <mxCell id="0" />
        <mxCell id="1" parent="0" />
        <mxCell id="3ubav-3QtQVOgUFK6tZU-1" value="P3" style="rounded=0;shadow=0;sketch=1;strokeWidth=2;fillColor=none;fontFamily=Ink Free;fontSize=17;spacing=20;fontStyle=1;strokeColor=#324AB2;fontColor=#324AB2;spacingBottom=5;" vertex="1" parent="1">
          <mxGeometry x="940" y="720" width="40" height="60" as="geometry" />
        </mxCell>
        <mxCell id="3ubav-3QtQVOgUFK6tZU-5" value="0" style="text;fillColor=none;align=center;verticalAlign=middle;rounded=0;shadow=0;sketch=1;fontFamily=Ink Free;fontSize=17;fontStyle=1;spacingRight=0;fontColor=#324AB2;spacingBottom=5;" vertex="1" parent="1">
          <mxGeometry x="790" y="790" width="25" height="20" as="geometry" />
        </mxCell>
        <mxCell id="scdj7e0GVl0dFcuVDUeb-1" value="P1" style="rounded=0;shadow=0;sketch=1;strokeWidth=2;fillColor=none;fontFamily=Ink Free;fontSize=17;spacing=20;fontStyle=1;strokeColor=#324AB2;fontColor=#324AB2;spacingBottom=5;" vertex="1" parent="1">
          <mxGeometry x="800" y="720" width="100" height="60" as="geometry" />
        </mxCell>
        <mxCell id="scdj7e0GVl0dFcuVDUeb-2" value="P1" style="rounded=0;shadow=0;sketch=1;strokeWidth=2;fillColor=none;fontFamily=Ink Free;fontSize=17;spacing=20;fontStyle=1;strokeColor=#324AB2;fontColor=#324AB2;spacingBottom=5;" vertex="1" parent="1">
          <mxGeometry x="1060" y="720" width="60" height="60" as="geometry" />
        </mxCell>
        <mxCell id="scdj7e0GVl0dFcuVDUeb-3" value="2" style="rounded=0;shadow=0;sketch=1;strokeWidth=2;fillColor=none;fontFamily=Ink Free;fontSize=17;spacing=20;fontStyle=1;strokeColor=#324AB2;fontColor=#324AB2;spacingBottom=5;" vertex="1" parent="1">
          <mxGeometry x="980" y="720" width="20" height="60" as="geometry" />
        </mxCell>
        <mxCell id="scdj7e0GVl0dFcuVDUeb-5" value="5" style="text;fillColor=none;align=center;verticalAlign=middle;rounded=0;shadow=0;sketch=1;fontFamily=Ink Free;fontSize=17;fontStyle=1;spacingRight=0;fontColor=#324AB2;spacingBottom=5;" vertex="1" parent="1">
          <mxGeometry x="890" y="790" width="25" height="20" as="geometry" />
        </mxCell>
        <mxCell id="scdj7e0GVl0dFcuVDUeb-6" value="9" style="text;fillColor=none;align=center;verticalAlign=middle;rounded=0;shadow=0;sketch=1;fontFamily=Ink Free;fontSize=17;fontStyle=1;spacingRight=0;fontColor=#324AB2;spacingBottom=5;" vertex="1" parent="1">
          <mxGeometry x="970" y="790" width="25" height="20" as="geometry" />
        </mxCell>
        <mxCell id="scdj7e0GVl0dFcuVDUeb-9" value="17" style="text;fillColor=none;align=center;verticalAlign=middle;rounded=0;shadow=0;sketch=1;fontFamily=Ink Free;fontSize=17;fontStyle=1;spacingRight=0;fontColor=#324AB2;spacingBottom=5;" vertex="1" parent="1">
          <mxGeometry x="1130" y="790" width="25" height="20" as="geometry" />
        </mxCell>
        <mxCell id="scdj7e0GVl0dFcuVDUeb-12" value="1" style="rounded=0;shadow=0;sketch=1;strokeWidth=2;fillColor=none;fontFamily=Ink Free;fontSize=17;spacing=20;fontStyle=1;strokeColor=#324AB2;fontColor=#324AB2;spacingBottom=5;" vertex="1" parent="1">
          <mxGeometry x="1000" y="720" width="40" height="60" as="geometry" />
        </mxCell>
        <mxCell id="scdj7e0GVl0dFcuVDUeb-13" value="P4" style="rounded=0;shadow=0;sketch=1;strokeWidth=2;fillColor=none;fontFamily=Ink Free;fontSize=17;spacing=20;fontStyle=1;strokeColor=#324AB2;fontColor=#324AB2;spacingBottom=5;" vertex="1" parent="1">
          <mxGeometry x="900" y="720" width="40" height="60" as="geometry" />
        </mxCell>
        <mxCell id="XkON5V10fzuiCAaG1mdx-1" value="7" style="text;fillColor=none;align=center;verticalAlign=middle;rounded=0;shadow=0;sketch=1;fontFamily=Ink Free;fontSize=17;fontStyle=1;spacingRight=0;fontColor=#324AB2;spacingBottom=5;" vertex="1" parent="1">
          <mxGeometry x="930" y="790" width="25" height="20" as="geometry" />
        </mxCell>
        <mxCell id="XkON5V10fzuiCAaG1mdx-2" value="12" style="text;fillColor=none;align=center;verticalAlign=middle;rounded=0;shadow=0;sketch=1;fontFamily=Ink Free;fontSize=17;fontStyle=1;spacingRight=0;fontColor=#324AB2;spacingBottom=5;" vertex="1" parent="1">
          <mxGeometry x="1030" y="790" width="25" height="20" as="geometry" />
        </mxCell>
        <mxCell id="fBMPn9ZAtEYbrXhz88A8-2" value="3" style="rounded=0;shadow=0;sketch=1;strokeWidth=2;fillColor=none;fontFamily=Ink Free;fontSize=17;spacing=20;fontStyle=1;strokeColor=#324AB2;fontColor=#324AB2;spacingBottom=5;" vertex="1" parent="1">
          <mxGeometry x="1040" y="720" width="20" height="60" as="geometry" />
        </mxCell>
        <mxCell id="fBMPn9ZAtEYbrXhz88A8-4" value="2" style="rounded=0;shadow=0;sketch=1;strokeWidth=2;fillColor=none;fontFamily=Ink Free;fontSize=17;spacing=20;fontStyle=1;strokeColor=#324AB2;fontColor=#324AB2;spacingBottom=5;" vertex="1" parent="1">
          <mxGeometry x="1120" y="720" width="20" height="60" as="geometry" />
        </mxCell>
      </root>
    </mxGraphModel>
  </diagram>
</mxfile>
